<svg aria-hidden="true" style="position: absolute; width: 0; height: 0; overflow: hidden;" version="1.1" xmlns="http://www.w3.org/2000/svg" xmlns:xlink="http://www.w3.org/1999/xlink">
<defs>
<symbol id="icon-logo" viewBox="0 0 64 32">
<path  d="M12.8 0h51.2v3.84h-51.2v-3.84z"></path>
<path  d="M0 14.080h51.2v3.84h-51.2v-3.84z"></path>
<path  d="M12.8 28.16h51.2v3.84h-51.2v-3.84z"></path>
</symbol>
<symbol id="icon-romb-hero" viewBox="0 0 30 32">
<path fill="#db3138" style="fill: var(--color1, #db3138)" d="M0.142 16l14.142-14.142 14.142 14.142-14.142 14.142-14.142-14.142z"></path>
</symbol>
<symbol id="icon-kubok" viewBox="0 0 26 32">
<path fill="#fff" style="fill: var(--color1, #fff)" d="M4.964 0.495c-0.578 0.201-1.002 0.641-1.177 1.221-0.051 0.168-0.088 0.551-0.088 0.897v0.603l-1.158 0.020c-1.324 0.023-1.524 0.078-1.991 0.545-0.51 0.51-0.635 1.114-0.498 2.419 0.234 2.246 1.001 3.982 2.298 5.206 0.675 0.637 1.499 1.13 2.277 1.364 0.252 0.076 0.297 0.119 0.454 0.441 0.507 1.036 1.366 2.295 2.199 3.22 0.473 0.526 1.377 1.332 2.069 1.845 0.625 0.464 0.788 0.63 0.967 0.991 0.14 0.282 0.145 0.342 0.164 2.209l0.019 1.918-0.463 0.229c-0.736 0.364-1.192 0.97-1.342 1.786l-0.074 0.402-0.531 0.027c-0.639 0.032-0.995 0.174-1.364 0.543-0.518 0.518-0.522 0.542-0.543 3.006l-0.018 2.172 0.366 0.41 12.788 0.033 0.405-0.362v-2.212c0-2.133-0.005-2.223-0.133-2.5-0.073-0.158-0.249-0.404-0.392-0.546-0.369-0.369-0.726-0.511-1.361-0.543l-0.528-0.026-0.077-0.406c-0.157-0.826-0.646-1.454-1.419-1.819l-0.39-0.184 0.019-1.922c0.019-1.871 0.023-1.93 0.164-2.212 0.179-0.36 0.342-0.527 0.967-0.991 1.796-1.332 3.205-2.984 4.18-4.899 0.252-0.495 0.281-0.527 0.544-0.607 0.787-0.238 1.656-0.761 2.305-1.387 1.287-1.242 2.037-2.955 2.269-5.183 0.136-1.305 0.012-1.909-0.498-2.419-0.467-0.467-0.668-0.522-1.985-0.545l-1.151-0.020-0.024-0.721c-0.019-0.565-0.052-0.783-0.154-1.008-0.166-0.365-0.568-0.768-0.936-0.939l-0.287-0.133-7.78-0.014c-7.254-0.013-7.801-0.007-8.089 0.093zM20.786 1.821l0.171 0.171-0.002 3.256c-0.002 3.574-0.013 3.72-0.405 5.194-0.323 1.217-0.952 2.622-1.619 3.618-0.772 1.153-1.929 2.353-3.133 3.247-0.75 0.558-1.006 0.829-1.26 1.333-0.321 0.639-0.343 0.855-0.343 3.273v2.24l0.17 0.187c0.131 0.144 0.254 0.202 0.54 0.252 0.599 0.106 1.020 0.483 1.114 0.998l0.042 0.232h-6.202l0.042-0.232c0.094-0.514 0.541-0.92 1.083-0.984 0.235-0.028 0.383-0.087 0.519-0.209l0.191-0.17 0.018-2.264c0.019-2.457-0.002-2.669-0.329-3.32-0.254-0.507-0.51-0.777-1.261-1.336-1.204-0.895-2.364-2.098-3.132-3.247-0.655-0.981-1.304-2.429-1.618-3.612-0.393-1.481-0.404-1.625-0.406-5.196-0.002-3.165 0.002-3.254 0.122-3.388 0.068-0.076 0.179-0.16 0.247-0.188s3.534-0.046 7.701-0.039l7.578 0.012 0.171 0.171zM3.699 6.116c0 2.212 0.137 3.501 0.501 4.725 0.069 0.232 0.114 0.435 0.099 0.45-0.059 0.059-0.962-0.606-1.29-0.95-1.083-1.136-1.715-2.894-1.74-4.84-0.007-0.576 0.007-0.673 0.115-0.795 0.195-0.218 0.311-0.239 1.343-0.243l0.973-0.004v1.656zM24.491 4.662c0.167 0.168 0.171 0.188 0.163 0.834-0.024 1.951-0.655 3.708-1.74 4.845-0.328 0.344-1.231 1.009-1.29 0.95-0.015-0.015 0.029-0.217 0.099-0.45 0.364-1.225 0.501-2.513 0.501-4.729v-1.66l2.097 0.039 0.171 0.172zM18.316 27.261l0.171 0.171 0.037 3.332h-11.126l0.018-1.661c0.017-1.56 0.026-1.669 0.142-1.798 0.068-0.075 0.179-0.16 0.247-0.188s2.422-0.046 5.232-0.039l5.108 0.012 0.171 0.171zM10.268 28.354c-0.194 0.079-0.394 0.365-0.394 0.564 0 0.107 0.070 0.255 0.18 0.378l0.18 0.202 2.903 0.037 0.204-0.182c0.169-0.151 0.204-0.226 0.204-0.442s-0.035-0.291-0.2-0.439l-0.2-0.179-1.373 0.004c-0.755 0.002-1.432 0.028-1.503 0.057zM15.208 28.354c-0.194 0.079-0.394 0.365-0.394 0.564 0 0.247 0.284 0.544 0.563 0.588 0.188 0.030 0.256 0.006 0.431-0.15 0.174-0.155 0.208-0.228 0.208-0.445 0-0.215-0.035-0.291-0.2-0.439-0.203-0.181-0.37-0.214-0.607-0.118z"></path>
<path fill="#db3138" style="fill: var(--color2, #db3138)" d="M12.843 4.134c-0.325 0.091-0.395 0.192-0.999 1.435-0.338 0.697-0.625 1.276-0.636 1.288s-0.586 0.101-1.277 0.2c-0.691 0.098-1.357 0.207-1.481 0.243-0.274 0.078-0.424 0.29-0.424 0.601 0 0.219 0.061 0.294 1.045 1.273l1.045 1.040-0.238 1.396c-0.212 1.245-0.229 1.418-0.155 1.595 0.046 0.109 0.139 0.229 0.208 0.265 0.297 0.159 0.539 0.081 1.784-0.578l1.218-0.644 1.243 0.644c1.37 0.71 1.576 0.766 1.847 0.495 0.082-0.082 0.165-0.214 0.184-0.293s-0.071-0.761-0.201-1.516l-0.237-1.372 1.032-1.030c0.661-0.66 1.043-1.088 1.062-1.191 0.048-0.25-0.109-0.548-0.341-0.65-0.112-0.049-0.718-0.161-1.346-0.25s-1.22-0.176-1.315-0.195c-0.154-0.031-0.241-0.172-0.816-1.32-0.354-0.707-0.673-1.305-0.71-1.327-0.119-0.074-0.4-0.136-0.494-0.11zM13.383 7.039c0.221 0.43 0.471 0.829 0.556 0.89 0.126 0.090 1.531 0.352 1.933 0.36 0.041 0.001-0.253 0.317-0.652 0.702-0.416 0.402-0.618 0.579-0.691 0.798-0.075 0.224-0.015 0.493 0.089 1.091 0.067 0.391 0.123 0.758 0.123 0.817 0 0.085-0.169 0.018-0.823-0.324-0.453-0.237-0.901-0.431-0.996-0.431s-0.544 0.196-0.998 0.436c-0.454 0.24-0.826 0.407-0.826 0.372s0.069-0.456 0.153-0.936c0.134-0.762 0.142-0.896 0.070-1.067-0.046-0.107-0.366-0.469-0.712-0.804s-0.619-0.619-0.606-0.632c0.013-0.013 0.424-0.081 0.914-0.152s0.951-0.167 1.024-0.214c0.073-0.047 0.317-0.465 0.542-0.93s0.429-0.825 0.454-0.801c0.025 0.024 0.225 0.395 0.446 0.824z"></path>
<path fill="#db3138" style="fill: var(--color2, #db3138)" d="M16.178 28.973c0 0.375-0.304 0.679-0.679 0.679s-0.679-0.304-0.679-0.679c0-0.375 0.304-0.679 0.679-0.679s0.679 0.304 0.679 0.679z"></path>
</symbol>
</defs>
</svg>
